{
 "cells": [
  {
   "cell_type": "code",
   "id": "initial_id",
   "metadata": {
    "collapsed": true,
    "ExecuteTime": {
     "end_time": "2025-07-20T19:29:01.874908Z",
     "start_time": "2025-07-20T19:28:57.012172Z"
    }
   },
   "source": [
    "# Импорт необходимых модулей\n",
    "from audio.audio_analyzer import AudioAnalyzer\n",
    "from tracking.face_reid import FaceReId\n",
    "from utils.scene_tools import (\n",
    "    enrich_scenes_with_characters,\n",
    "    enrich_scenes_with_audio,\n",
    "    group_semantic_scenes,\n",
    "    clean_and_merge_short_scenes,\n",
    "    print_scenes_formatted,\n",
    ")\n",
    "from utils.video_tools import save_scenes_ffmpeg\n",
    "from utils.audio_tools import extract_audio_ffmpeg\n",
    "from sentence_transformers import SentenceTransformer\n",
    "from video.video_analyzer import VideoAnalyzer"
   ],
   "outputs": [
    {
     "name": "stderr",
     "output_type": "stream",
     "text": [
      "/home/artniz/hackatons/kion/kionvenv/lib/python3.10/site-packages/tqdm/auto.py:21: TqdmWarning: IProgress not found. Please update jupyter and ipywidgets. See https://ipywidgets.readthedocs.io/en/stable/user_install.html\n",
      "  from .autonotebook import tqdm as notebook_tqdm\n"
     ]
    }
   ],
   "execution_count": 1
  },
  {
   "metadata": {},
   "cell_type": "markdown",
   "source": [
    "# Анализ видео и выделение сцен\n",
    "\n",
    "### В этой ячейке мы создаём объект VideoAnalyzer и анализируем видео для получения сцены и лиц, привязанных к трекам.\n"
   ],
   "id": "20690d6793c8bd80"
  },
  {
   "metadata": {
    "ExecuteTime": {
     "end_time": "2025-07-20T19:29:26.473691Z",
     "start_time": "2025-07-20T19:29:05.167588Z"
    }
   },
   "cell_type": "code",
   "source": [
    "video_path = \"test.mp4\"\n",
    "\n",
    "video_analyzer = VideoAnalyzer()\n",
    "\n",
    "# Анализируем видео — получаем сцены и лица (срезы лиц из кадров)\n",
    "scenes, track_faces = video_analyzer.analyze_video(video_path)"
   ],
   "id": "497fde0375118ca4",
   "outputs": [
    {
     "name": "stderr",
     "output_type": "stream",
     "text": [
      "Computing embeddings: 100%|██████████| 364/364 [00:04<00:00, 84.66it/s]\n",
      "Analyzing scenes: 100%|██████████| 43/43 [00:13<00:00,  3.10it/s]\n"
     ]
    }
   ],
   "execution_count": 2
  },
  {
   "metadata": {},
   "cell_type": "markdown",
   "source": [
    "# Идентификация персонажей (Face Re-Identification)\n",
    "\n",
    "### Здесь используем FaceReId для определения, каким персонажам принадлежат найденные лица.\n"
   ],
   "id": "7422c6cdcd4ade6e"
  },
  {
   "metadata": {
    "ExecuteTime": {
     "end_time": "2025-07-20T19:29:45.752602Z",
     "start_time": "2025-07-20T19:29:29.447027Z"
    }
   },
   "cell_type": "code",
   "source": [
    "face_reid = FaceReId()\n",
    "\n",
    "# Получаем отображение track_id → персонаж (имя или ID)\n",
    "track_id_to_person = face_reid.analyze_persons(track_faces)\n"
   ],
   "id": "47c2446dcdb7cedf",
   "outputs": [
    {
     "name": "stdout",
     "output_type": "stream",
     "text": [
      "Applied providers: ['CUDAExecutionProvider', 'CPUExecutionProvider'], with options: {'CPUExecutionProvider': {}, 'CUDAExecutionProvider': {'sdpa_kernel': '0', 'use_tf32': '1', 'fuse_conv_bias': '0', 'prefer_nhwc': '0', 'tunable_op_max_tuning_duration_ms': '0', 'enable_skip_layer_norm_strict_mode': '0', 'tunable_op_tuning_enable': '0', 'tunable_op_enable': '0', 'use_ep_level_unified_stream': '0', 'device_id': '0', 'has_user_compute_stream': '0', 'gpu_external_empty_cache': '0', 'cudnn_conv_algo_search': 'EXHAUSTIVE', 'cudnn_conv1d_pad_to_nc1d': '0', 'gpu_mem_limit': '18446744073709551615', 'gpu_external_alloc': '0', 'gpu_external_free': '0', 'arena_extend_strategy': 'kNextPowerOfTwo', 'do_copy_in_default_stream': '1', 'enable_cuda_graph': '0', 'user_compute_stream': '0', 'cudnn_conv_use_max_workspace': '1'}}\n",
      "find model: /home/artniz/.insightface/models/buffalo_l/1k3d68.onnx landmark_3d_68 ['None', 3, 192, 192] 0.0 1.0\n",
      "Applied providers: ['CUDAExecutionProvider', 'CPUExecutionProvider'], with options: {'CPUExecutionProvider': {}, 'CUDAExecutionProvider': {'sdpa_kernel': '0', 'use_tf32': '1', 'fuse_conv_bias': '0', 'prefer_nhwc': '0', 'tunable_op_max_tuning_duration_ms': '0', 'enable_skip_layer_norm_strict_mode': '0', 'tunable_op_tuning_enable': '0', 'tunable_op_enable': '0', 'use_ep_level_unified_stream': '0', 'device_id': '0', 'has_user_compute_stream': '0', 'gpu_external_empty_cache': '0', 'cudnn_conv_algo_search': 'EXHAUSTIVE', 'cudnn_conv1d_pad_to_nc1d': '0', 'gpu_mem_limit': '18446744073709551615', 'gpu_external_alloc': '0', 'gpu_external_free': '0', 'arena_extend_strategy': 'kNextPowerOfTwo', 'do_copy_in_default_stream': '1', 'enable_cuda_graph': '0', 'user_compute_stream': '0', 'cudnn_conv_use_max_workspace': '1'}}\n",
      "find model: /home/artniz/.insightface/models/buffalo_l/2d106det.onnx landmark_2d_106 ['None', 3, 192, 192] 0.0 1.0\n",
      "Applied providers: ['CUDAExecutionProvider', 'CPUExecutionProvider'], with options: {'CPUExecutionProvider': {}, 'CUDAExecutionProvider': {'sdpa_kernel': '0', 'use_tf32': '1', 'fuse_conv_bias': '0', 'prefer_nhwc': '0', 'tunable_op_max_tuning_duration_ms': '0', 'enable_skip_layer_norm_strict_mode': '0', 'tunable_op_tuning_enable': '0', 'tunable_op_enable': '0', 'use_ep_level_unified_stream': '0', 'device_id': '0', 'has_user_compute_stream': '0', 'gpu_external_empty_cache': '0', 'cudnn_conv_algo_search': 'EXHAUSTIVE', 'cudnn_conv1d_pad_to_nc1d': '0', 'gpu_mem_limit': '18446744073709551615', 'gpu_external_alloc': '0', 'gpu_external_free': '0', 'arena_extend_strategy': 'kNextPowerOfTwo', 'do_copy_in_default_stream': '1', 'enable_cuda_graph': '0', 'user_compute_stream': '0', 'cudnn_conv_use_max_workspace': '1'}}\n",
      "find model: /home/artniz/.insightface/models/buffalo_l/det_10g.onnx detection [1, 3, '?', '?'] 127.5 128.0\n",
      "Applied providers: ['CUDAExecutionProvider', 'CPUExecutionProvider'], with options: {'CPUExecutionProvider': {}, 'CUDAExecutionProvider': {'sdpa_kernel': '0', 'use_tf32': '1', 'fuse_conv_bias': '0', 'prefer_nhwc': '0', 'tunable_op_max_tuning_duration_ms': '0', 'enable_skip_layer_norm_strict_mode': '0', 'tunable_op_tuning_enable': '0', 'tunable_op_enable': '0', 'use_ep_level_unified_stream': '0', 'device_id': '0', 'has_user_compute_stream': '0', 'gpu_external_empty_cache': '0', 'cudnn_conv_algo_search': 'EXHAUSTIVE', 'cudnn_conv1d_pad_to_nc1d': '0', 'gpu_mem_limit': '18446744073709551615', 'gpu_external_alloc': '0', 'gpu_external_free': '0', 'arena_extend_strategy': 'kNextPowerOfTwo', 'do_copy_in_default_stream': '1', 'enable_cuda_graph': '0', 'user_compute_stream': '0', 'cudnn_conv_use_max_workspace': '1'}}\n",
      "find model: /home/artniz/.insightface/models/buffalo_l/genderage.onnx genderage ['None', 3, 96, 96] 0.0 1.0\n",
      "Applied providers: ['CUDAExecutionProvider', 'CPUExecutionProvider'], with options: {'CPUExecutionProvider': {}, 'CUDAExecutionProvider': {'sdpa_kernel': '0', 'use_tf32': '1', 'fuse_conv_bias': '0', 'prefer_nhwc': '0', 'tunable_op_max_tuning_duration_ms': '0', 'enable_skip_layer_norm_strict_mode': '0', 'tunable_op_tuning_enable': '0', 'tunable_op_enable': '0', 'use_ep_level_unified_stream': '0', 'device_id': '0', 'has_user_compute_stream': '0', 'gpu_external_empty_cache': '0', 'cudnn_conv_algo_search': 'EXHAUSTIVE', 'cudnn_conv1d_pad_to_nc1d': '0', 'gpu_mem_limit': '18446744073709551615', 'gpu_external_alloc': '0', 'gpu_external_free': '0', 'arena_extend_strategy': 'kNextPowerOfTwo', 'do_copy_in_default_stream': '1', 'enable_cuda_graph': '0', 'user_compute_stream': '0', 'cudnn_conv_use_max_workspace': '1'}}\n",
      "find model: /home/artniz/.insightface/models/buffalo_l/w600k_r50.onnx recognition ['None', 3, 112, 112] 127.5 127.5\n",
      "set det-size: (640, 640)\n"
     ]
    },
    {
     "name": "stderr",
     "output_type": "stream",
     "text": [
      "Analyzing faces: 100%|██████████| 19/19 [00:15<00:00,  1.25it/s]\n"
     ]
    }
   ],
   "execution_count": 3
  },
  {
   "metadata": {},
   "cell_type": "markdown",
   "source": "",
   "id": "5694f04b3afad075"
  },
  {
   "metadata": {},
   "cell_type": "markdown",
   "source": [
    "# Обогащение сцен информацией о персонажах\n",
    "\n",
    "### Связываем сцены с именами персонажей на основе сопоставления track_id → персонаж.\n"
   ],
   "id": "7c874e185b4a0123"
  },
  {
   "metadata": {
    "ExecuteTime": {
     "end_time": "2025-07-20T19:29:49.626385Z",
     "start_time": "2025-07-20T19:29:49.623689Z"
    }
   },
   "cell_type": "code",
   "source": "scene_data = enrich_scenes_with_characters(scenes, track_id_to_person)\n",
   "id": "63fa159735aef628",
   "outputs": [],
   "execution_count": 4
  },
  {
   "metadata": {},
   "cell_type": "markdown",
   "source": [
    "# Извлечение аудио из видео\n",
    "\n",
    "### С помощью ffmpeg извлекаем аудио в формате WAV для последующего анализа.\n"
   ],
   "id": "552488ab76cde42f"
  },
  {
   "metadata": {
    "ExecuteTime": {
     "end_time": "2025-07-20T19:29:52.586511Z",
     "start_time": "2025-07-20T19:29:52.414328Z"
    }
   },
   "cell_type": "code",
   "source": "audio_path = extract_audio_ffmpeg(video_path)\n",
   "id": "e85e475fa82afeaa",
   "outputs": [
    {
     "name": "stderr",
     "output_type": "stream",
     "text": [
      "ffmpeg version 4.4.2-0ubuntu0.22.04.1 Copyright (c) 2000-2021 the FFmpeg developers\n",
      "  built with gcc 11 (Ubuntu 11.2.0-19ubuntu1)\n",
      "  configuration: --prefix=/usr --extra-version=0ubuntu0.22.04.1 --toolchain=hardened --libdir=/usr/lib/x86_64-linux-gnu --incdir=/usr/include/x86_64-linux-gnu --arch=amd64 --enable-gpl --disable-stripping --enable-gnutls --enable-ladspa --enable-libaom --enable-libass --enable-libbluray --enable-libbs2b --enable-libcaca --enable-libcdio --enable-libcodec2 --enable-libdav1d --enable-libflite --enable-libfontconfig --enable-libfreetype --enable-libfribidi --enable-libgme --enable-libgsm --enable-libjack --enable-libmp3lame --enable-libmysofa --enable-libopenjpeg --enable-libopenmpt --enable-libopus --enable-libpulse --enable-librabbitmq --enable-librubberband --enable-libshine --enable-libsnappy --enable-libsoxr --enable-libspeex --enable-libsrt --enable-libssh --enable-libtheora --enable-libtwolame --enable-libvidstab --enable-libvorbis --enable-libvpx --enable-libwebp --enable-libx265 --enable-libxml2 --enable-libxvid --enable-libzimg --enable-libzmq --enable-libzvbi --enable-lv2 --enable-omx --enable-openal --enable-opencl --enable-opengl --enable-sdl2 --enable-pocketsphinx --enable-librsvg --enable-libmfx --enable-libdc1394 --enable-libdrm --enable-libiec61883 --enable-chromaprint --enable-frei0r --enable-libx264 --enable-shared\n",
      "  libavutil      56. 70.100 / 56. 70.100\n",
      "  libavcodec     58.134.100 / 58.134.100\n",
      "  libavformat    58. 76.100 / 58. 76.100\n",
      "  libavdevice    58. 13.100 / 58. 13.100\n",
      "  libavfilter     7.110.100 /  7.110.100\n",
      "  libswscale      5.  9.100 /  5.  9.100\n",
      "  libswresample   3.  9.100 /  3.  9.100\n",
      "  libpostproc    55.  9.100 / 55.  9.100\n",
      "Input #0, mov,mp4,m4a,3gp,3g2,mj2, from 'test.mp4':\n",
      "  Metadata:\n",
      "    major_brand     : isom\n",
      "    minor_version   : 512\n",
      "    compatible_brands: isomiso2avc1mp41\n",
      "    encoder         : Lavf61.1.100\n",
      "  Duration: 00:03:01.84, start: 0.000000, bitrate: 239 kb/s\n",
      "  Stream #0:0(und): Video: h264 (Main) (avc1 / 0x31637661), yuv420p(tv, bt709), 256x144, 200 kb/s, 30.01 fps, 30 tbr, 90k tbn, 2000k tbc (default)\n",
      "    Metadata:\n",
      "      handler_name    : VideoHandler\n",
      "      vendor_id       : [0][0][0][0]\n",
      "  Stream #0:1(und): Audio: aac (LC) (mp4a / 0x6134706D), 44100 Hz, stereo, fltp, 32 kb/s (default)\n",
      "    Metadata:\n",
      "      handler_name    : SoundHandler\n",
      "      vendor_id       : [0][0][0][0]\n",
      "Stream mapping:\n",
      "  Stream #0:1 -> #0:0 (aac (native) -> pcm_s16le (native))\n",
      "Press [q] to stop, [?] for help\n",
      "Output #0, wav, to 'audio.wav':\n",
      "  Metadata:\n",
      "    major_brand     : isom\n",
      "    minor_version   : 512\n",
      "    compatible_brands: isomiso2avc1mp41\n",
      "    ISFT            : Lavf58.76.100\n",
      "  Stream #0:0(und): Audio: pcm_s16le ([1][0][0][0] / 0x0001), 16000 Hz, mono, s16, 256 kb/s (default)\n",
      "    Metadata:\n",
      "      handler_name    : SoundHandler\n",
      "      vendor_id       : [0][0][0][0]\n",
      "      encoder         : Lavc58.134.100 pcm_s16le\n",
      "size=    5682kB time=00:03:01.83 bitrate= 256.0kbits/s speed=1.33e+03x    \n",
      "video:0kB audio:5682kB subtitle:0kB other streams:0kB global headers:0kB muxing overhead: 0.001340%\n"
     ]
    }
   ],
   "execution_count": 5
  },
  {
   "metadata": {},
   "cell_type": "markdown",
   "source": [
    "# Анализ аудио: распознавание речи и активность\n",
    "\n",
    "### Используем AudioAnalyzer для транскрибирования речи и измерения активности звука (энергии)."
   ],
   "id": "473ae0ab96893355"
  },
  {
   "metadata": {
    "ExecuteTime": {
     "end_time": "2025-07-20T19:30:05.698791Z",
     "start_time": "2025-07-20T19:29:55.260755Z"
    }
   },
   "cell_type": "code",
   "source": [
    "audio_analyzer = AudioAnalyzer(audio_path)\n",
    "\n",
    "# Получаем список сегментов с распознанным текстом\n",
    "segments = audio_analyzer.transcribe_audio()\n",
    "\n",
    "# Получаем значения энергии аудио для каждого временного фрейма\n",
    "energy = audio_analyzer.detect_audio_activity(frame_duration=1.0)"
   ],
   "id": "3b273c0e8880d4c9",
   "outputs": [],
   "execution_count": 6
  },
  {
   "metadata": {},
   "cell_type": "markdown",
   "source": [
    "# Обогащение сцен транскриптами и аудио энергией\n",
    "\n",
    "### Добавляем к сценам распознанный текст и усреднённые показатели звуковой активности.\n"
   ],
   "id": "123b0a082d3914dc"
  },
  {
   "metadata": {
    "ExecuteTime": {
     "end_time": "2025-07-20T19:30:09.429514Z",
     "start_time": "2025-07-20T19:30:09.425892Z"
    }
   },
   "cell_type": "code",
   "source": [
    "scene_data_copy = scene_data.copy()\n",
    "\n",
    "scenes_enrich = enrich_scenes_with_audio(scene_data_copy, segments, energy)\n"
   ],
   "id": "6259c4cfff657228",
   "outputs": [],
   "execution_count": 7
  },
  {
   "metadata": {},
   "cell_type": "markdown",
   "source": [
    "# Семантическая группировка и очистка сцен\n",
    "\n",
    "### Группируем сцены по сходству персонажей, текстов и аудио, затем объединяем слишком короткие сцены.\n"
   ],
   "id": "8671830e16358109"
  },
  {
   "metadata": {
    "ExecuteTime": {
     "end_time": "2025-07-20T19:30:16.949633Z",
     "start_time": "2025-07-20T19:30:12.039614Z"
    }
   },
   "cell_type": "code",
   "source": [
    "scenes_enrich_copy = scenes_enrich.copy()\n",
    "\n",
    "# Загружаем модель для вычисления семантических эмбеддингов текста\n",
    "sentenceTransformer = SentenceTransformer('all-MiniLM-L6-v2', device=\"cuda\")\n",
    "\n",
    "# Группируем похожие сцены\n",
    "scenes_grouped = group_semantic_scenes(scenes_enrich_copy, sentenceTransformer)\n",
    "\n",
    "# Убираем слишком короткие сцены, объединяя их с соседними\n",
    "scenes_grouped = clean_and_merge_short_scenes(scenes_grouped, min_duration=2.0, min_words=3)"
   ],
   "id": "6fe283a93c107570",
   "outputs": [],
   "execution_count": 8
  },
  {
   "metadata": {},
   "cell_type": "markdown",
   "source": [
    "# Вывод результата\n",
    "\n",
    "### Печатаем красиво отформатированный отчёт по сценам.\n"
   ],
   "id": "bd5e3537874ff6aa"
  },
  {
   "metadata": {
    "ExecuteTime": {
     "end_time": "2025-07-20T19:30:19.173464Z",
     "start_time": "2025-07-20T19:30:19.169452Z"
    }
   },
   "cell_type": "code",
   "source": "print_scenes_formatted(scenes_grouped)\n",
   "id": "3d9c4924826004c",
   "outputs": [
    {
     "name": "stdout",
     "output_type": "stream",
     "text": [
      "\n",
      "🎬 Сцена 1\n",
      "⏱ Время: 0.00 – 32.49 сек\n",
      "🧍 Персонажи (characters): person_0, person_1\n",
      "🔊 Средняя громкость: 0.0523\n",
      "🗣 Реплика:\n",
      "\"Рванули в России за славой, вормию нас, кто угодно, немцы и таляны даже шавой цары, 600 тысяч тыков. Истет, что за дерьмо, Миссия на полион, ты нам дороги на карте рисовали, дорог не хиранет, наибалполучается. До смоленской остелась, немнёжка. Бонья сказяли, что это приключение на 20 минут. Скоро домой с победой. Вы\"\n",
      "------------------------------------------------------------\n",
      "\n",
      "🎬 Сцена 2\n",
      "⏱ Время: 32.49 – 55.98 сек\n",
      "🧍 Персонажи (characters): person_0, person_1\n",
      "🔊 Средняя громкость: 0.0535\n",
      "🗣 Реплика:\n",
      "\"как гляньте, что это творите? Моленск но это пистет. Рвуски нас чуть не вайпнули. Еще император чуть не поджарился в шатре. Это просто вилы, Рвуски исполели все свои избючки. Все вебещали нам богатые Рвуски деревня, но мы жирем землю пеплом. пеплом. пеплом. Вот Сия.\"\n",
      "------------------------------------------------------------\n",
      "\n",
      "🎬 Сцена 3\n",
      "⏱ Время: 55.98 – 63.48 сек\n",
      "🧍 Персонажи (characters): person_0\n",
      "🔊 Средняя громкость: 0.0440\n",
      "🗣 Реплика:\n",
      "\"обещанные запасные кони. Половину съели еще подвититскому. Бон опять имя, Сия. Сия. Смья,\"\n",
      "------------------------------------------------------------\n",
      "\n",
      "🎬 Сцена 4\n",
      "⏱ Время: 63.48 – 67.98 сек\n",
      "🧍 Персонажи (characters): person_0\n",
      "🔊 Средняя громкость: 0.0627\n",
      "🗣 Реплика:\n",
      "\"Бородина. Бонья, пьяц, какими-то своими геняальными планами.\"\n",
      "------------------------------------------------------------\n",
      "\n",
      "🎬 Сцена 5\n",
      "⏱ Время: 67.98 – 89.47 сек\n",
      "🧍 Персонажи (characters): person_0, person_1\n",
      "🔊 Средняя громкость: 0.0491\n",
      "🗣 Реплика:\n",
      "\"планами. Чую Россия пройдень Бородина. Бородина. пройдень Бородина. Бородина. Бородина. Боба, засполярил. Боба, засполярил. Боба, засполярил. Боба, засполярил. Боба, засполярил. Поехали. Пожи половины уже нет. Где знаменось? Кто с сука в меду стоял? Где я стоял? Стогрина дёра. Мы воду конец. не конец.\"\n",
      "------------------------------------------------------------\n",
      "\n",
      "🎬 Сцена 6\n",
      "⏱ Время: 89.47 – 101.97 сек\n",
      "🧍 Персонажи (characters): person_0, person_1\n",
      "🔊 Средняя громкость: 0.0538\n",
      "🗣 Реплика:\n",
      "\"отступают, но я уверен, что это еще не конец. Помоги. Руски отступают сохранив в БС пособную армию, но за нами тактическая победа. Идем на Москву господа. Осква наша.\"\n",
      "------------------------------------------------------------\n",
      "\n",
      "🎬 Сцена 7\n",
      "⏱ Время: 101.97 – 118.47 сек\n",
      "🧍 Персонажи (characters): person_0, person_2\n",
      "🔊 Средняя громкость: 0.0436\n",
      "🗣 Реплика:\n",
      "\"Руски и блять сожгли весь лут. Тут абсолютно не хвя нет. Они ху, я император прочитался. Но где? Сидим, пердим. Ждем переговоров с Александром. Бос надеется, что Саня запросит мир. Ну посмотрим. Блять\"\n",
      "------------------------------------------------------------\n",
      "\n",
      "🎬 Сцена 8\n",
      "⏱ Время: 118.47 – 157.45 сек\n",
      "🧍 Персонажи (characters): person_0, person_2, person_3\n",
      "🔊 Средняя громкость: 0.0539\n",
      "🗣 Реплика:\n",
      "\"снег пошел, русские портизания, в жрачки нет. Набржение нет. Жарем кору холодно с сука. Я баны бано-парттянет время. Спезду в с котиферавик, то бано-донаж. Убал вот хайт. Итва чужу камено фогетей. Когаться дезавк, тубрыль. И чужи океанаж. Айца. Что-то пошло не так. Такого никто не ожидал. У меня даже акцент пропал. Во всем виноваты злые руски. Сука, сука, сука. Сука! через березину. Масты есть, но я решил бежать пальду. Русские стреляют, лет проваливается. Боня помоги. Переправу строили два дня. Остгорело, она в один миг. Ещё и пальцы кажется отморозил. И колебно,\"\n",
      "------------------------------------------------------------\n",
      "\n",
      "🎬 Сцена 9\n",
      "⏱ Время: 157.45 – 164.95 сек\n",
      "🧍 Персонажи (characters): person_0\n",
      "🔊 Средняя громкость: 0.0551\n",
      "🗣 Реплика:\n",
      "\"отступлении. отступлении. отступлении. отступлении. отступлении. отступлении. отступлении. Нас мороз. мороз. мороз.\"\n",
      "------------------------------------------------------------\n",
      "\n",
      "🎬 Сцена 10\n",
      "⏱ Время: 164.95 – 181.45 сек\n",
      "🧍 Персонажи (characters): person_0\n",
      "🔊 Средняя громкость: 0.0526\n",
      "🗣 Реплика:\n",
      "\"мороз. Асия нас уделал. Впрочем, русские, как всегда, приходишь их побеждать. Получаешь знатных пиздюлены психологического травму. Будь может это последняя наша рандевух. Но это запись останется как память. Подпишитесь на канал, не забывайте бедного жомпера.\"\n",
      "------------------------------------------------------------\n"
     ]
    }
   ],
   "execution_count": 9
  },
  {
   "metadata": {},
   "cell_type": "markdown",
   "source": [
    "# Сохранение выделенных сцен в отдельные видеофайлы\n",
    "\n",
    "### Используем ffmpeg для вырезки и сохранения сцен в отдельные файлы.\n"
   ],
   "id": "5c98c3b316a543dc"
  },
  {
   "metadata": {
    "ExecuteTime": {
     "end_time": "2025-07-20T19:30:55.043593Z",
     "start_time": "2025-07-20T19:30:41.523715Z"
    }
   },
   "cell_type": "code",
   "source": [
    "output_dir = \"output_scenes\"\n",
    "\n",
    "save_scenes_ffmpeg(video_path, scenes_grouped, output_dir)\n"
   ],
   "id": "ac7a5a199343a007",
   "outputs": [
    {
     "name": "stderr",
     "output_type": "stream",
     "text": [
      "ffmpeg version 4.4.2-0ubuntu0.22.04.1 Copyright (c) 2000-2021 the FFmpeg developers\n",
      "  built with gcc 11 (Ubuntu 11.2.0-19ubuntu1)\n",
      "  configuration: --prefix=/usr --extra-version=0ubuntu0.22.04.1 --toolchain=hardened --libdir=/usr/lib/x86_64-linux-gnu --incdir=/usr/include/x86_64-linux-gnu --arch=amd64 --enable-gpl --disable-stripping --enable-gnutls --enable-ladspa --enable-libaom --enable-libass --enable-libbluray --enable-libbs2b --enable-libcaca --enable-libcdio --enable-libcodec2 --enable-libdav1d --enable-libflite --enable-libfontconfig --enable-libfreetype --enable-libfribidi --enable-libgme --enable-libgsm --enable-libjack --enable-libmp3lame --enable-libmysofa --enable-libopenjpeg --enable-libopenmpt --enable-libopus --enable-libpulse --enable-librabbitmq --enable-librubberband --enable-libshine --enable-libsnappy --enable-libsoxr --enable-libspeex --enable-libsrt --enable-libssh --enable-libtheora --enable-libtwolame --enable-libvidstab --enable-libvorbis --enable-libvpx --enable-libwebp --enable-libx265 --enable-libxml2 --enable-libxvid --enable-libzimg --enable-libzmq --enable-libzvbi --enable-lv2 --enable-omx --enable-openal --enable-opencl --enable-opengl --enable-sdl2 --enable-pocketsphinx --enable-librsvg --enable-libmfx --enable-libdc1394 --enable-libdrm --enable-libiec61883 --enable-chromaprint --enable-frei0r --enable-libx264 --enable-shared\n",
      "  libavutil      56. 70.100 / 56. 70.100\n",
      "  libavcodec     58.134.100 / 58.134.100\n",
      "  libavformat    58. 76.100 / 58. 76.100\n",
      "  libavdevice    58. 13.100 / 58. 13.100\n",
      "  libavfilter     7.110.100 /  7.110.100\n",
      "  libswscale      5.  9.100 /  5.  9.100\n",
      "  libswresample   3.  9.100 /  3.  9.100\n",
      "  libpostproc    55.  9.100 / 55.  9.100\n",
      "Input #0, mov,mp4,m4a,3gp,3g2,mj2, from 'test.mp4':\n",
      "  Metadata:\n",
      "    major_brand     : isom\n",
      "    minor_version   : 512\n",
      "    compatible_brands: isomiso2avc1mp41\n",
      "    encoder         : Lavf61.1.100\n",
      "  Duration: 00:03:01.84, start: 0.000000, bitrate: 239 kb/s\n",
      "  Stream #0:0(und): Video: h264 (Main) (avc1 / 0x31637661), yuv420p(tv, bt709), 256x144, 200 kb/s, 30.01 fps, 30 tbr, 90k tbn, 2000k tbc (default)\n",
      "    Metadata:\n",
      "      handler_name    : VideoHandler\n",
      "      vendor_id       : [0][0][0][0]\n",
      "  Stream #0:1(und): Audio: aac (LC) (mp4a / 0x6134706D), 44100 Hz, stereo, fltp, 32 kb/s (default)\n",
      "    Metadata:\n",
      "      handler_name    : SoundHandler\n",
      "      vendor_id       : [0][0][0][0]\n",
      "Stream mapping:\n",
      "  Stream #0:0 -> #0:0 (h264 (native) -> h264 (h264_nvenc))\n",
      "  Stream #0:1 -> #0:1 (aac (native) -> aac (native))\n",
      "Press [q] to stop, [?] for help\n",
      "Output #0, mp4, to 'output_scenes/scene_0.mp4':\n",
      "  Metadata:\n",
      "    major_brand     : isom\n",
      "    minor_version   : 512\n",
      "    compatible_brands: isomiso2avc1mp41\n",
      "    encoder         : Lavf58.76.100\n",
      "  Stream #0:0(und): Video: h264 (Main) (avc1 / 0x31637661), yuv420p(tv, bt709, progressive), 256x144, q=2-31, 2000 kb/s, 30 fps, 15360 tbn (default)\n",
      "    Metadata:\n",
      "      handler_name    : VideoHandler\n",
      "      vendor_id       : [0][0][0][0]\n",
      "      encoder         : Lavc58.134.100 h264_nvenc\n",
      "    Side data:\n",
      "      cpb: bitrate max/min/avg: 0/0/2000000 buffer size: 4000000 vbv_delay: N/A\n",
      "  Stream #0:1(und): Audio: aac (LC) (mp4a / 0x6134706D), 44100 Hz, stereo, fltp, 128 kb/s (default)\n",
      "    Metadata:\n",
      "      handler_name    : SoundHandler\n",
      "      vendor_id       : [0][0][0][0]\n",
      "      encoder         : Lavc58.134.100 aac\n",
      "frame=  975 fps=568 q=11.0 Lsize=    7513kB time=00:00:32.48 bitrate=1894.7kbits/s dup=1 drop=0 speed=18.9x    \n",
      "video:6993kB audio:486kB subtitle:0kB other streams:0kB global headers:0kB muxing overhead: 0.454907%\n",
      "[aac @ 0x560ae2c62f40] Qavg: 29228.857\n",
      "ffmpeg version 4.4.2-0ubuntu0.22.04.1 Copyright (c) 2000-2021 the FFmpeg developers\n",
      "  built with gcc 11 (Ubuntu 11.2.0-19ubuntu1)\n",
      "  configuration: --prefix=/usr --extra-version=0ubuntu0.22.04.1 --toolchain=hardened --libdir=/usr/lib/x86_64-linux-gnu --incdir=/usr/include/x86_64-linux-gnu --arch=amd64 --enable-gpl --disable-stripping --enable-gnutls --enable-ladspa --enable-libaom --enable-libass --enable-libbluray --enable-libbs2b --enable-libcaca --enable-libcdio --enable-libcodec2 --enable-libdav1d --enable-libflite --enable-libfontconfig --enable-libfreetype --enable-libfribidi --enable-libgme --enable-libgsm --enable-libjack --enable-libmp3lame --enable-libmysofa --enable-libopenjpeg --enable-libopenmpt --enable-libopus --enable-libpulse --enable-librabbitmq --enable-librubberband --enable-libshine --enable-libsnappy --enable-libsoxr --enable-libspeex --enable-libsrt --enable-libssh --enable-libtheora --enable-libtwolame --enable-libvidstab --enable-libvorbis --enable-libvpx --enable-libwebp --enable-libx265 --enable-libxml2 --enable-libxvid --enable-libzimg --enable-libzmq --enable-libzvbi --enable-lv2 --enable-omx --enable-openal --enable-opencl --enable-opengl --enable-sdl2 --enable-pocketsphinx --enable-librsvg --enable-libmfx --enable-libdc1394 --enable-libdrm --enable-libiec61883 --enable-chromaprint --enable-frei0r --enable-libx264 --enable-shared\n",
      "  libavutil      56. 70.100 / 56. 70.100\n",
      "  libavcodec     58.134.100 / 58.134.100\n",
      "  libavformat    58. 76.100 / 58. 76.100\n",
      "  libavdevice    58. 13.100 / 58. 13.100\n",
      "  libavfilter     7.110.100 /  7.110.100\n",
      "  libswscale      5.  9.100 /  5.  9.100\n",
      "  libswresample   3.  9.100 /  3.  9.100\n",
      "  libpostproc    55.  9.100 / 55.  9.100\n",
      "Input #0, mov,mp4,m4a,3gp,3g2,mj2, from 'test.mp4':\n",
      "  Metadata:\n",
      "    major_brand     : isom\n",
      "    minor_version   : 512\n",
      "    compatible_brands: isomiso2avc1mp41\n",
      "    encoder         : Lavf61.1.100\n",
      "  Duration: 00:03:01.84, start: 0.000000, bitrate: 239 kb/s\n",
      "  Stream #0:0(und): Video: h264 (Main) (avc1 / 0x31637661), yuv420p(tv, bt709), 256x144, 200 kb/s, 30.01 fps, 30 tbr, 90k tbn, 2000k tbc (default)\n",
      "    Metadata:\n",
      "      handler_name    : VideoHandler\n",
      "      vendor_id       : [0][0][0][0]\n",
      "  Stream #0:1(und): Audio: aac (LC) (mp4a / 0x6134706D), 44100 Hz, stereo, fltp, 32 kb/s (default)\n",
      "    Metadata:\n",
      "      handler_name    : SoundHandler\n",
      "      vendor_id       : [0][0][0][0]\n",
      "Stream mapping:\n",
      "  Stream #0:0 -> #0:0 (h264 (native) -> h264 (h264_nvenc))\n",
      "  Stream #0:1 -> #0:1 (aac (native) -> aac (native))\n",
      "Press [q] to stop, [?] for help\n",
      "Output #0, mp4, to 'output_scenes/scene_1.mp4':\n",
      "  Metadata:\n",
      "    major_brand     : isom\n",
      "    minor_version   : 512\n",
      "    compatible_brands: isomiso2avc1mp41\n",
      "    encoder         : Lavf58.76.100\n",
      "  Stream #0:0(und): Video: h264 (Main) (avc1 / 0x31637661), yuv420p(tv, bt709, progressive), 256x144, q=2-31, 2000 kb/s, 30 fps, 15360 tbn (default)\n",
      "    Metadata:\n",
      "      handler_name    : VideoHandler\n",
      "      vendor_id       : [0][0][0][0]\n",
      "      encoder         : Lavc58.134.100 h264_nvenc\n",
      "    Side data:\n",
      "      cpb: bitrate max/min/avg: 0/0/2000000 buffer size: 4000000 vbv_delay: N/A\n",
      "  Stream #0:1(und): Audio: aac (LC) (mp4a / 0x6134706D), 44100 Hz, stereo, fltp, 128 kb/s (default)\n",
      "    Metadata:\n",
      "      handler_name    : SoundHandler\n",
      "      vendor_id       : [0][0][0][0]\n",
      "      encoder         : Lavc58.134.100 aac\n",
      "frame=  705 fps=678 q=11.0 Lsize=    5129kB time=00:00:23.47 bitrate=1789.8kbits/s dup=1 drop=0 speed=22.6x    \n",
      "video:4726kB audio:378kB subtitle:0kB other streams:0kB global headers:0kB muxing overhead: 0.489817%\n",
      "[aac @ 0x55f268343f40] Qavg: 1870.153\n",
      "ffmpeg version 4.4.2-0ubuntu0.22.04.1 Copyright (c) 2000-2021 the FFmpeg developers\n",
      "  built with gcc 11 (Ubuntu 11.2.0-19ubuntu1)\n",
      "  configuration: --prefix=/usr --extra-version=0ubuntu0.22.04.1 --toolchain=hardened --libdir=/usr/lib/x86_64-linux-gnu --incdir=/usr/include/x86_64-linux-gnu --arch=amd64 --enable-gpl --disable-stripping --enable-gnutls --enable-ladspa --enable-libaom --enable-libass --enable-libbluray --enable-libbs2b --enable-libcaca --enable-libcdio --enable-libcodec2 --enable-libdav1d --enable-libflite --enable-libfontconfig --enable-libfreetype --enable-libfribidi --enable-libgme --enable-libgsm --enable-libjack --enable-libmp3lame --enable-libmysofa --enable-libopenjpeg --enable-libopenmpt --enable-libopus --enable-libpulse --enable-librabbitmq --enable-librubberband --enable-libshine --enable-libsnappy --enable-libsoxr --enable-libspeex --enable-libsrt --enable-libssh --enable-libtheora --enable-libtwolame --enable-libvidstab --enable-libvorbis --enable-libvpx --enable-libwebp --enable-libx265 --enable-libxml2 --enable-libxvid --enable-libzimg --enable-libzmq --enable-libzvbi --enable-lv2 --enable-omx --enable-openal --enable-opencl --enable-opengl --enable-sdl2 --enable-pocketsphinx --enable-librsvg --enable-libmfx --enable-libdc1394 --enable-libdrm --enable-libiec61883 --enable-chromaprint --enable-frei0r --enable-libx264 --enable-shared\n",
      "  libavutil      56. 70.100 / 56. 70.100\n",
      "  libavcodec     58.134.100 / 58.134.100\n",
      "  libavformat    58. 76.100 / 58. 76.100\n",
      "  libavdevice    58. 13.100 / 58. 13.100\n",
      "  libavfilter     7.110.100 /  7.110.100\n",
      "  libswscale      5.  9.100 /  5.  9.100\n",
      "  libswresample   3.  9.100 /  3.  9.100\n",
      "  libpostproc    55.  9.100 / 55.  9.100\n",
      "Input #0, mov,mp4,m4a,3gp,3g2,mj2, from 'test.mp4':\n",
      "  Metadata:\n",
      "    major_brand     : isom\n",
      "    minor_version   : 512\n",
      "    compatible_brands: isomiso2avc1mp41\n",
      "    encoder         : Lavf61.1.100\n",
      "  Duration: 00:03:01.84, start: 0.000000, bitrate: 239 kb/s\n",
      "  Stream #0:0(und): Video: h264 (Main) (avc1 / 0x31637661), yuv420p(tv, bt709), 256x144, 200 kb/s, 30.01 fps, 30 tbr, 90k tbn, 2000k tbc (default)\n",
      "    Metadata:\n",
      "      handler_name    : VideoHandler\n",
      "      vendor_id       : [0][0][0][0]\n",
      "  Stream #0:1(und): Audio: aac (LC) (mp4a / 0x6134706D), 44100 Hz, stereo, fltp, 32 kb/s (default)\n",
      "    Metadata:\n",
      "      handler_name    : SoundHandler\n",
      "      vendor_id       : [0][0][0][0]\n",
      "Stream mapping:\n",
      "  Stream #0:0 -> #0:0 (h264 (native) -> h264 (h264_nvenc))\n",
      "  Stream #0:1 -> #0:1 (aac (native) -> aac (native))\n",
      "Press [q] to stop, [?] for help\n",
      "Output #0, mp4, to 'output_scenes/scene_2.mp4':\n",
      "  Metadata:\n",
      "    major_brand     : isom\n",
      "    minor_version   : 512\n",
      "    compatible_brands: isomiso2avc1mp41\n",
      "    encoder         : Lavf58.76.100\n",
      "  Stream #0:0(und): Video: h264 (Main) (avc1 / 0x31637661), yuv420p(tv, bt709, progressive), 256x144, q=2-31, 2000 kb/s, 30 fps, 15360 tbn (default)\n",
      "    Metadata:\n",
      "      handler_name    : VideoHandler\n",
      "      vendor_id       : [0][0][0][0]\n",
      "      encoder         : Lavc58.134.100 h264_nvenc\n",
      "    Side data:\n",
      "      cpb: bitrate max/min/avg: 0/0/2000000 buffer size: 4000000 vbv_delay: N/A\n",
      "  Stream #0:1(und): Audio: aac (LC) (mp4a / 0x6134706D), 44100 Hz, stereo, fltp, 128 kb/s (default)\n",
      "    Metadata:\n",
      "      handler_name    : SoundHandler\n",
      "      vendor_id       : [0][0][0][0]\n",
      "      encoder         : Lavc58.134.100 aac\n",
      "frame=  225 fps=0.0 q=10.0 Lsize=    1482kB time=00:00:07.47 bitrate=1623.3kbits/s dup=1 drop=0 speed= 9.7x    \n",
      "video:1355kB audio:118kB subtitle:0kB other streams:0kB global headers:0kB muxing overhead: 0.605566%\n",
      "[aac @ 0x55fe5c1d5f40] Qavg: 191.113\n",
      "ffmpeg version 4.4.2-0ubuntu0.22.04.1 Copyright (c) 2000-2021 the FFmpeg developers\n",
      "  built with gcc 11 (Ubuntu 11.2.0-19ubuntu1)\n",
      "  configuration: --prefix=/usr --extra-version=0ubuntu0.22.04.1 --toolchain=hardened --libdir=/usr/lib/x86_64-linux-gnu --incdir=/usr/include/x86_64-linux-gnu --arch=amd64 --enable-gpl --disable-stripping --enable-gnutls --enable-ladspa --enable-libaom --enable-libass --enable-libbluray --enable-libbs2b --enable-libcaca --enable-libcdio --enable-libcodec2 --enable-libdav1d --enable-libflite --enable-libfontconfig --enable-libfreetype --enable-libfribidi --enable-libgme --enable-libgsm --enable-libjack --enable-libmp3lame --enable-libmysofa --enable-libopenjpeg --enable-libopenmpt --enable-libopus --enable-libpulse --enable-librabbitmq --enable-librubberband --enable-libshine --enable-libsnappy --enable-libsoxr --enable-libspeex --enable-libsrt --enable-libssh --enable-libtheora --enable-libtwolame --enable-libvidstab --enable-libvorbis --enable-libvpx --enable-libwebp --enable-libx265 --enable-libxml2 --enable-libxvid --enable-libzimg --enable-libzmq --enable-libzvbi --enable-lv2 --enable-omx --enable-openal --enable-opencl --enable-opengl --enable-sdl2 --enable-pocketsphinx --enable-librsvg --enable-libmfx --enable-libdc1394 --enable-libdrm --enable-libiec61883 --enable-chromaprint --enable-frei0r --enable-libx264 --enable-shared\n",
      "  libavutil      56. 70.100 / 56. 70.100\n",
      "  libavcodec     58.134.100 / 58.134.100\n",
      "  libavformat    58. 76.100 / 58. 76.100\n",
      "  libavdevice    58. 13.100 / 58. 13.100\n",
      "  libavfilter     7.110.100 /  7.110.100\n",
      "  libswscale      5.  9.100 /  5.  9.100\n",
      "  libswresample   3.  9.100 /  3.  9.100\n",
      "  libpostproc    55.  9.100 / 55.  9.100\n",
      "Input #0, mov,mp4,m4a,3gp,3g2,mj2, from 'test.mp4':\n",
      "  Metadata:\n",
      "    major_brand     : isom\n",
      "    minor_version   : 512\n",
      "    compatible_brands: isomiso2avc1mp41\n",
      "    encoder         : Lavf61.1.100\n",
      "  Duration: 00:03:01.84, start: 0.000000, bitrate: 239 kb/s\n",
      "  Stream #0:0(und): Video: h264 (Main) (avc1 / 0x31637661), yuv420p(tv, bt709), 256x144, 200 kb/s, 30.01 fps, 30 tbr, 90k tbn, 2000k tbc (default)\n",
      "    Metadata:\n",
      "      handler_name    : VideoHandler\n",
      "      vendor_id       : [0][0][0][0]\n",
      "  Stream #0:1(und): Audio: aac (LC) (mp4a / 0x6134706D), 44100 Hz, stereo, fltp, 32 kb/s (default)\n",
      "    Metadata:\n",
      "      handler_name    : SoundHandler\n",
      "      vendor_id       : [0][0][0][0]\n",
      "Stream mapping:\n",
      "  Stream #0:0 -> #0:0 (h264 (native) -> h264 (h264_nvenc))\n",
      "  Stream #0:1 -> #0:1 (aac (native) -> aac (native))\n",
      "Press [q] to stop, [?] for help\n",
      "Output #0, mp4, to 'output_scenes/scene_3.mp4':\n",
      "  Metadata:\n",
      "    major_brand     : isom\n",
      "    minor_version   : 512\n",
      "    compatible_brands: isomiso2avc1mp41\n",
      "    encoder         : Lavf58.76.100\n",
      "  Stream #0:0(und): Video: h264 (Main) (avc1 / 0x31637661), yuv420p(tv, bt709, progressive), 256x144, q=2-31, 2000 kb/s, 30 fps, 15360 tbn (default)\n",
      "    Metadata:\n",
      "      handler_name    : VideoHandler\n",
      "      vendor_id       : [0][0][0][0]\n",
      "      encoder         : Lavc58.134.100 h264_nvenc\n",
      "    Side data:\n",
      "      cpb: bitrate max/min/avg: 0/0/2000000 buffer size: 4000000 vbv_delay: N/A\n",
      "  Stream #0:1(und): Audio: aac (LC) (mp4a / 0x6134706D), 44100 Hz, stereo, fltp, 128 kb/s (default)\n",
      "    Metadata:\n",
      "      handler_name    : SoundHandler\n",
      "      vendor_id       : [0][0][0][0]\n",
      "      encoder         : Lavc58.134.100 aac\n",
      "frame=  135 fps=0.0 q=9.0 Lsize=     634kB time=00:00:04.48 bitrate=1158.4kbits/s dup=1 drop=0 speed=6.88x    \n",
      "video:556kB audio:71kB subtitle:0kB other streams:0kB global headers:0kB muxing overhead: 0.944519%\n",
      "[aac @ 0x55588af59f40] Qavg: 189.489\n",
      "ffmpeg version 4.4.2-0ubuntu0.22.04.1 Copyright (c) 2000-2021 the FFmpeg developers\n",
      "  built with gcc 11 (Ubuntu 11.2.0-19ubuntu1)\n",
      "  configuration: --prefix=/usr --extra-version=0ubuntu0.22.04.1 --toolchain=hardened --libdir=/usr/lib/x86_64-linux-gnu --incdir=/usr/include/x86_64-linux-gnu --arch=amd64 --enable-gpl --disable-stripping --enable-gnutls --enable-ladspa --enable-libaom --enable-libass --enable-libbluray --enable-libbs2b --enable-libcaca --enable-libcdio --enable-libcodec2 --enable-libdav1d --enable-libflite --enable-libfontconfig --enable-libfreetype --enable-libfribidi --enable-libgme --enable-libgsm --enable-libjack --enable-libmp3lame --enable-libmysofa --enable-libopenjpeg --enable-libopenmpt --enable-libopus --enable-libpulse --enable-librabbitmq --enable-librubberband --enable-libshine --enable-libsnappy --enable-libsoxr --enable-libspeex --enable-libsrt --enable-libssh --enable-libtheora --enable-libtwolame --enable-libvidstab --enable-libvorbis --enable-libvpx --enable-libwebp --enable-libx265 --enable-libxml2 --enable-libxvid --enable-libzimg --enable-libzmq --enable-libzvbi --enable-lv2 --enable-omx --enable-openal --enable-opencl --enable-opengl --enable-sdl2 --enable-pocketsphinx --enable-librsvg --enable-libmfx --enable-libdc1394 --enable-libdrm --enable-libiec61883 --enable-chromaprint --enable-frei0r --enable-libx264 --enable-shared\n",
      "  libavutil      56. 70.100 / 56. 70.100\n",
      "  libavcodec     58.134.100 / 58.134.100\n",
      "  libavformat    58. 76.100 / 58. 76.100\n",
      "  libavdevice    58. 13.100 / 58. 13.100\n",
      "  libavfilter     7.110.100 /  7.110.100\n",
      "  libswscale      5.  9.100 /  5.  9.100\n",
      "  libswresample   3.  9.100 /  3.  9.100\n",
      "  libpostproc    55.  9.100 / 55.  9.100\n",
      "Input #0, mov,mp4,m4a,3gp,3g2,mj2, from 'test.mp4':\n",
      "  Metadata:\n",
      "    major_brand     : isom\n",
      "    minor_version   : 512\n",
      "    compatible_brands: isomiso2avc1mp41\n",
      "    encoder         : Lavf61.1.100\n",
      "  Duration: 00:03:01.84, start: 0.000000, bitrate: 239 kb/s\n",
      "  Stream #0:0(und): Video: h264 (Main) (avc1 / 0x31637661), yuv420p(tv, bt709), 256x144, 200 kb/s, 30.01 fps, 30 tbr, 90k tbn, 2000k tbc (default)\n",
      "    Metadata:\n",
      "      handler_name    : VideoHandler\n",
      "      vendor_id       : [0][0][0][0]\n",
      "  Stream #0:1(und): Audio: aac (LC) (mp4a / 0x6134706D), 44100 Hz, stereo, fltp, 32 kb/s (default)\n",
      "    Metadata:\n",
      "      handler_name    : SoundHandler\n",
      "      vendor_id       : [0][0][0][0]\n",
      "Stream mapping:\n",
      "  Stream #0:0 -> #0:0 (h264 (native) -> h264 (h264_nvenc))\n",
      "  Stream #0:1 -> #0:1 (aac (native) -> aac (native))\n",
      "Press [q] to stop, [?] for help\n",
      "Output #0, mp4, to 'output_scenes/scene_4.mp4':\n",
      "  Metadata:\n",
      "    major_brand     : isom\n",
      "    minor_version   : 512\n",
      "    compatible_brands: isomiso2avc1mp41\n",
      "    encoder         : Lavf58.76.100\n",
      "  Stream #0:0(und): Video: h264 (Main) (avc1 / 0x31637661), yuv420p(tv, bt709, progressive), 256x144, q=2-31, 2000 kb/s, 30 fps, 15360 tbn (default)\n",
      "    Metadata:\n",
      "      handler_name    : VideoHandler\n",
      "      vendor_id       : [0][0][0][0]\n",
      "      encoder         : Lavc58.134.100 h264_nvenc\n",
      "    Side data:\n",
      "      cpb: bitrate max/min/avg: 0/0/2000000 buffer size: 4000000 vbv_delay: N/A\n",
      "  Stream #0:1(und): Audio: aac (LC) (mp4a / 0x6134706D), 44100 Hz, stereo, fltp, 128 kb/s (default)\n",
      "    Metadata:\n",
      "      handler_name    : SoundHandler\n",
      "      vendor_id       : [0][0][0][0]\n",
      "      encoder         : Lavc58.134.100 aac\n",
      "frame=  645 fps=473 q=8.0 Lsize=    4770kB time=00:00:21.47 bitrate=1819.2kbits/s dup=1 drop=0 speed=15.8x    \n",
      "video:4398kB audio:349kB subtitle:0kB other streams:0kB global headers:0kB muxing overhead: 0.484371%\n",
      "[aac @ 0x55cf4a784f40] Qavg: 4449.308\n",
      "ffmpeg version 4.4.2-0ubuntu0.22.04.1 Copyright (c) 2000-2021 the FFmpeg developers\n",
      "  built with gcc 11 (Ubuntu 11.2.0-19ubuntu1)\n",
      "  configuration: --prefix=/usr --extra-version=0ubuntu0.22.04.1 --toolchain=hardened --libdir=/usr/lib/x86_64-linux-gnu --incdir=/usr/include/x86_64-linux-gnu --arch=amd64 --enable-gpl --disable-stripping --enable-gnutls --enable-ladspa --enable-libaom --enable-libass --enable-libbluray --enable-libbs2b --enable-libcaca --enable-libcdio --enable-libcodec2 --enable-libdav1d --enable-libflite --enable-libfontconfig --enable-libfreetype --enable-libfribidi --enable-libgme --enable-libgsm --enable-libjack --enable-libmp3lame --enable-libmysofa --enable-libopenjpeg --enable-libopenmpt --enable-libopus --enable-libpulse --enable-librabbitmq --enable-librubberband --enable-libshine --enable-libsnappy --enable-libsoxr --enable-libspeex --enable-libsrt --enable-libssh --enable-libtheora --enable-libtwolame --enable-libvidstab --enable-libvorbis --enable-libvpx --enable-libwebp --enable-libx265 --enable-libxml2 --enable-libxvid --enable-libzimg --enable-libzmq --enable-libzvbi --enable-lv2 --enable-omx --enable-openal --enable-opencl --enable-opengl --enable-sdl2 --enable-pocketsphinx --enable-librsvg --enable-libmfx --enable-libdc1394 --enable-libdrm --enable-libiec61883 --enable-chromaprint --enable-frei0r --enable-libx264 --enable-shared\n",
      "  libavutil      56. 70.100 / 56. 70.100\n",
      "  libavcodec     58.134.100 / 58.134.100\n",
      "  libavformat    58. 76.100 / 58. 76.100\n",
      "  libavdevice    58. 13.100 / 58. 13.100\n",
      "  libavfilter     7.110.100 /  7.110.100\n",
      "  libswscale      5.  9.100 /  5.  9.100\n",
      "  libswresample   3.  9.100 /  3.  9.100\n",
      "  libpostproc    55.  9.100 / 55.  9.100\n",
      "Input #0, mov,mp4,m4a,3gp,3g2,mj2, from 'test.mp4':\n",
      "  Metadata:\n",
      "    major_brand     : isom\n",
      "    minor_version   : 512\n",
      "    compatible_brands: isomiso2avc1mp41\n",
      "    encoder         : Lavf61.1.100\n",
      "  Duration: 00:03:01.84, start: 0.000000, bitrate: 239 kb/s\n",
      "  Stream #0:0(und): Video: h264 (Main) (avc1 / 0x31637661), yuv420p(tv, bt709), 256x144, 200 kb/s, 30.01 fps, 30 tbr, 90k tbn, 2000k tbc (default)\n",
      "    Metadata:\n",
      "      handler_name    : VideoHandler\n",
      "      vendor_id       : [0][0][0][0]\n",
      "  Stream #0:1(und): Audio: aac (LC) (mp4a / 0x6134706D), 44100 Hz, stereo, fltp, 32 kb/s (default)\n",
      "    Metadata:\n",
      "      handler_name    : SoundHandler\n",
      "      vendor_id       : [0][0][0][0]\n",
      "Stream mapping:\n",
      "  Stream #0:0 -> #0:0 (h264 (native) -> h264 (h264_nvenc))\n",
      "  Stream #0:1 -> #0:1 (aac (native) -> aac (native))\n",
      "Press [q] to stop, [?] for help\n",
      "Output #0, mp4, to 'output_scenes/scene_5.mp4':\n",
      "  Metadata:\n",
      "    major_brand     : isom\n",
      "    minor_version   : 512\n",
      "    compatible_brands: isomiso2avc1mp41\n",
      "    encoder         : Lavf58.76.100\n",
      "  Stream #0:0(und): Video: h264 (Main) (avc1 / 0x31637661), yuv420p(tv, bt709, progressive), 256x144, q=2-31, 2000 kb/s, 30 fps, 15360 tbn (default)\n",
      "    Metadata:\n",
      "      handler_name    : VideoHandler\n",
      "      vendor_id       : [0][0][0][0]\n",
      "      encoder         : Lavc58.134.100 h264_nvenc\n",
      "    Side data:\n",
      "      cpb: bitrate max/min/avg: 0/0/2000000 buffer size: 4000000 vbv_delay: N/A\n",
      "  Stream #0:1(und): Audio: aac (LC) (mp4a / 0x6134706D), 44100 Hz, stereo, fltp, 128 kb/s (default)\n",
      "    Metadata:\n",
      "      handler_name    : SoundHandler\n",
      "      vendor_id       : [0][0][0][0]\n",
      "      encoder         : Lavc58.134.100 aac\n",
      "frame=  375 fps=0.0 q=8.0 Lsize=    2576kB time=00:00:12.49 bitrate=1689.4kbits/s speed=14.3x    \n",
      "video:2364kB audio:198kB subtitle:0kB other streams:0kB global headers:0kB muxing overhead: 0.544717%\n",
      "[aac @ 0x55eae5816f40] Qavg: 440.246\n",
      "ffmpeg version 4.4.2-0ubuntu0.22.04.1 Copyright (c) 2000-2021 the FFmpeg developers\n",
      "  built with gcc 11 (Ubuntu 11.2.0-19ubuntu1)\n",
      "  configuration: --prefix=/usr --extra-version=0ubuntu0.22.04.1 --toolchain=hardened --libdir=/usr/lib/x86_64-linux-gnu --incdir=/usr/include/x86_64-linux-gnu --arch=amd64 --enable-gpl --disable-stripping --enable-gnutls --enable-ladspa --enable-libaom --enable-libass --enable-libbluray --enable-libbs2b --enable-libcaca --enable-libcdio --enable-libcodec2 --enable-libdav1d --enable-libflite --enable-libfontconfig --enable-libfreetype --enable-libfribidi --enable-libgme --enable-libgsm --enable-libjack --enable-libmp3lame --enable-libmysofa --enable-libopenjpeg --enable-libopenmpt --enable-libopus --enable-libpulse --enable-librabbitmq --enable-librubberband --enable-libshine --enable-libsnappy --enable-libsoxr --enable-libspeex --enable-libsrt --enable-libssh --enable-libtheora --enable-libtwolame --enable-libvidstab --enable-libvorbis --enable-libvpx --enable-libwebp --enable-libx265 --enable-libxml2 --enable-libxvid --enable-libzimg --enable-libzmq --enable-libzvbi --enable-lv2 --enable-omx --enable-openal --enable-opencl --enable-opengl --enable-sdl2 --enable-pocketsphinx --enable-librsvg --enable-libmfx --enable-libdc1394 --enable-libdrm --enable-libiec61883 --enable-chromaprint --enable-frei0r --enable-libx264 --enable-shared\n",
      "  libavutil      56. 70.100 / 56. 70.100\n",
      "  libavcodec     58.134.100 / 58.134.100\n",
      "  libavformat    58. 76.100 / 58. 76.100\n",
      "  libavdevice    58. 13.100 / 58. 13.100\n",
      "  libavfilter     7.110.100 /  7.110.100\n",
      "  libswscale      5.  9.100 /  5.  9.100\n",
      "  libswresample   3.  9.100 /  3.  9.100\n",
      "  libpostproc    55.  9.100 / 55.  9.100\n",
      "Input #0, mov,mp4,m4a,3gp,3g2,mj2, from 'test.mp4':\n",
      "  Metadata:\n",
      "    major_brand     : isom\n",
      "    minor_version   : 512\n",
      "    compatible_brands: isomiso2avc1mp41\n",
      "    encoder         : Lavf61.1.100\n",
      "  Duration: 00:03:01.84, start: 0.000000, bitrate: 239 kb/s\n",
      "  Stream #0:0(und): Video: h264 (Main) (avc1 / 0x31637661), yuv420p(tv, bt709), 256x144, 200 kb/s, 30.01 fps, 30 tbr, 90k tbn, 2000k tbc (default)\n",
      "    Metadata:\n",
      "      handler_name    : VideoHandler\n",
      "      vendor_id       : [0][0][0][0]\n",
      "  Stream #0:1(und): Audio: aac (LC) (mp4a / 0x6134706D), 44100 Hz, stereo, fltp, 32 kb/s (default)\n",
      "    Metadata:\n",
      "      handler_name    : SoundHandler\n",
      "      vendor_id       : [0][0][0][0]\n",
      "Stream mapping:\n",
      "  Stream #0:0 -> #0:0 (h264 (native) -> h264 (h264_nvenc))\n",
      "  Stream #0:1 -> #0:1 (aac (native) -> aac (native))\n",
      "Press [q] to stop, [?] for help\n",
      "Output #0, mp4, to 'output_scenes/scene_6.mp4':\n",
      "  Metadata:\n",
      "    major_brand     : isom\n",
      "    minor_version   : 512\n",
      "    compatible_brands: isomiso2avc1mp41\n",
      "    encoder         : Lavf58.76.100\n",
      "  Stream #0:0(und): Video: h264 (Main) (avc1 / 0x31637661), yuv420p(tv, bt709, progressive), 256x144, q=2-31, 2000 kb/s, 30 fps, 15360 tbn (default)\n",
      "    Metadata:\n",
      "      handler_name    : VideoHandler\n",
      "      vendor_id       : [0][0][0][0]\n",
      "      encoder         : Lavc58.134.100 h264_nvenc\n",
      "    Side data:\n",
      "      cpb: bitrate max/min/avg: 0/0/2000000 buffer size: 4000000 vbv_delay: N/A\n",
      "  Stream #0:1(und): Audio: aac (LC) (mp4a / 0x6134706D), 44100 Hz, stereo, fltp, 128 kb/s (default)\n",
      "    Metadata:\n",
      "      handler_name    : SoundHandler\n",
      "      vendor_id       : [0][0][0][0]\n",
      "      encoder         : Lavc58.134.100 aac\n",
      "frame=  495 fps=434 q=10.0 Lsize=    3320kB time=00:00:16.48 bitrate=1649.8kbits/s speed=14.4x    \n",
      "video:3040kB audio:262kB subtitle:0kB other streams:0kB global headers:0kB muxing overhead: 0.543802%\n",
      "[aac @ 0x55a45f7a4f40] Qavg: 10280.699\n",
      "ffmpeg version 4.4.2-0ubuntu0.22.04.1 Copyright (c) 2000-2021 the FFmpeg developers\n",
      "  built with gcc 11 (Ubuntu 11.2.0-19ubuntu1)\n",
      "  configuration: --prefix=/usr --extra-version=0ubuntu0.22.04.1 --toolchain=hardened --libdir=/usr/lib/x86_64-linux-gnu --incdir=/usr/include/x86_64-linux-gnu --arch=amd64 --enable-gpl --disable-stripping --enable-gnutls --enable-ladspa --enable-libaom --enable-libass --enable-libbluray --enable-libbs2b --enable-libcaca --enable-libcdio --enable-libcodec2 --enable-libdav1d --enable-libflite --enable-libfontconfig --enable-libfreetype --enable-libfribidi --enable-libgme --enable-libgsm --enable-libjack --enable-libmp3lame --enable-libmysofa --enable-libopenjpeg --enable-libopenmpt --enable-libopus --enable-libpulse --enable-librabbitmq --enable-librubberband --enable-libshine --enable-libsnappy --enable-libsoxr --enable-libspeex --enable-libsrt --enable-libssh --enable-libtheora --enable-libtwolame --enable-libvidstab --enable-libvorbis --enable-libvpx --enable-libwebp --enable-libx265 --enable-libxml2 --enable-libxvid --enable-libzimg --enable-libzmq --enable-libzvbi --enable-lv2 --enable-omx --enable-openal --enable-opencl --enable-opengl --enable-sdl2 --enable-pocketsphinx --enable-librsvg --enable-libmfx --enable-libdc1394 --enable-libdrm --enable-libiec61883 --enable-chromaprint --enable-frei0r --enable-libx264 --enable-shared\n",
      "  libavutil      56. 70.100 / 56. 70.100\n",
      "  libavcodec     58.134.100 / 58.134.100\n",
      "  libavformat    58. 76.100 / 58. 76.100\n",
      "  libavdevice    58. 13.100 / 58. 13.100\n",
      "  libavfilter     7.110.100 /  7.110.100\n",
      "  libswscale      5.  9.100 /  5.  9.100\n",
      "  libswresample   3.  9.100 /  3.  9.100\n",
      "  libpostproc    55.  9.100 / 55.  9.100\n",
      "Input #0, mov,mp4,m4a,3gp,3g2,mj2, from 'test.mp4':\n",
      "  Metadata:\n",
      "    major_brand     : isom\n",
      "    minor_version   : 512\n",
      "    compatible_brands: isomiso2avc1mp41\n",
      "    encoder         : Lavf61.1.100\n",
      "  Duration: 00:03:01.84, start: 0.000000, bitrate: 239 kb/s\n",
      "  Stream #0:0(und): Video: h264 (Main) (avc1 / 0x31637661), yuv420p(tv, bt709), 256x144, 200 kb/s, 30.01 fps, 30 tbr, 90k tbn, 2000k tbc (default)\n",
      "    Metadata:\n",
      "      handler_name    : VideoHandler\n",
      "      vendor_id       : [0][0][0][0]\n",
      "  Stream #0:1(und): Audio: aac (LC) (mp4a / 0x6134706D), 44100 Hz, stereo, fltp, 32 kb/s (default)\n",
      "    Metadata:\n",
      "      handler_name    : SoundHandler\n",
      "      vendor_id       : [0][0][0][0]\n",
      "Stream mapping:\n",
      "  Stream #0:0 -> #0:0 (h264 (native) -> h264 (h264_nvenc))\n",
      "  Stream #0:1 -> #0:1 (aac (native) -> aac (native))\n",
      "Press [q] to stop, [?] for help\n",
      "Output #0, mp4, to 'output_scenes/scene_7.mp4':\n",
      "  Metadata:\n",
      "    major_brand     : isom\n",
      "    minor_version   : 512\n",
      "    compatible_brands: isomiso2avc1mp41\n",
      "    encoder         : Lavf58.76.100\n",
      "  Stream #0:0(und): Video: h264 (Main) (avc1 / 0x31637661), yuv420p(tv, bt709, progressive), 256x144, q=2-31, 2000 kb/s, 30 fps, 15360 tbn (default)\n",
      "    Metadata:\n",
      "      handler_name    : VideoHandler\n",
      "      vendor_id       : [0][0][0][0]\n",
      "      encoder         : Lavc58.134.100 h264_nvenc\n",
      "    Side data:\n",
      "      cpb: bitrate max/min/avg: 0/0/2000000 buffer size: 4000000 vbv_delay: N/A\n",
      "  Stream #0:1(und): Audio: aac (LC) (mp4a / 0x6134706D), 44100 Hz, stereo, fltp, 128 kb/s (default)\n",
      "    Metadata:\n",
      "      handler_name    : SoundHandler\n",
      "      vendor_id       : [0][0][0][0]\n",
      "      encoder         : Lavc58.134.100 aac\n",
      "frame= 1170 fps=510 q=7.0 Lsize=    8825kB time=00:00:38.98 bitrate=1854.3kbits/s speed=  17x    \n",
      "video:8172kB audio:612kB subtitle:0kB other streams:0kB global headers:0kB muxing overhead: 0.461865%\n",
      "[aac @ 0x55846c8edf40] Qavg: 16587.148\n",
      "ffmpeg version 4.4.2-0ubuntu0.22.04.1 Copyright (c) 2000-2021 the FFmpeg developers\n",
      "  built with gcc 11 (Ubuntu 11.2.0-19ubuntu1)\n",
      "  configuration: --prefix=/usr --extra-version=0ubuntu0.22.04.1 --toolchain=hardened --libdir=/usr/lib/x86_64-linux-gnu --incdir=/usr/include/x86_64-linux-gnu --arch=amd64 --enable-gpl --disable-stripping --enable-gnutls --enable-ladspa --enable-libaom --enable-libass --enable-libbluray --enable-libbs2b --enable-libcaca --enable-libcdio --enable-libcodec2 --enable-libdav1d --enable-libflite --enable-libfontconfig --enable-libfreetype --enable-libfribidi --enable-libgme --enable-libgsm --enable-libjack --enable-libmp3lame --enable-libmysofa --enable-libopenjpeg --enable-libopenmpt --enable-libopus --enable-libpulse --enable-librabbitmq --enable-librubberband --enable-libshine --enable-libsnappy --enable-libsoxr --enable-libspeex --enable-libsrt --enable-libssh --enable-libtheora --enable-libtwolame --enable-libvidstab --enable-libvorbis --enable-libvpx --enable-libwebp --enable-libx265 --enable-libxml2 --enable-libxvid --enable-libzimg --enable-libzmq --enable-libzvbi --enable-lv2 --enable-omx --enable-openal --enable-opencl --enable-opengl --enable-sdl2 --enable-pocketsphinx --enable-librsvg --enable-libmfx --enable-libdc1394 --enable-libdrm --enable-libiec61883 --enable-chromaprint --enable-frei0r --enable-libx264 --enable-shared\n",
      "  libavutil      56. 70.100 / 56. 70.100\n",
      "  libavcodec     58.134.100 / 58.134.100\n",
      "  libavformat    58. 76.100 / 58. 76.100\n",
      "  libavdevice    58. 13.100 / 58. 13.100\n",
      "  libavfilter     7.110.100 /  7.110.100\n",
      "  libswscale      5.  9.100 /  5.  9.100\n",
      "  libswresample   3.  9.100 /  3.  9.100\n",
      "  libpostproc    55.  9.100 / 55.  9.100\n",
      "Input #0, mov,mp4,m4a,3gp,3g2,mj2, from 'test.mp4':\n",
      "  Metadata:\n",
      "    major_brand     : isom\n",
      "    minor_version   : 512\n",
      "    compatible_brands: isomiso2avc1mp41\n",
      "    encoder         : Lavf61.1.100\n",
      "  Duration: 00:03:01.84, start: 0.000000, bitrate: 239 kb/s\n",
      "  Stream #0:0(und): Video: h264 (Main) (avc1 / 0x31637661), yuv420p(tv, bt709), 256x144, 200 kb/s, 30.01 fps, 30 tbr, 90k tbn, 2000k tbc (default)\n",
      "    Metadata:\n",
      "      handler_name    : VideoHandler\n",
      "      vendor_id       : [0][0][0][0]\n",
      "  Stream #0:1(und): Audio: aac (LC) (mp4a / 0x6134706D), 44100 Hz, stereo, fltp, 32 kb/s (default)\n",
      "    Metadata:\n",
      "      handler_name    : SoundHandler\n",
      "      vendor_id       : [0][0][0][0]\n",
      "Stream mapping:\n",
      "  Stream #0:0 -> #0:0 (h264 (native) -> h264 (h264_nvenc))\n",
      "  Stream #0:1 -> #0:1 (aac (native) -> aac (native))\n",
      "Press [q] to stop, [?] for help\n",
      "Output #0, mp4, to 'output_scenes/scene_8.mp4':\n",
      "  Metadata:\n",
      "    major_brand     : isom\n",
      "    minor_version   : 512\n",
      "    compatible_brands: isomiso2avc1mp41\n",
      "    encoder         : Lavf58.76.100\n",
      "  Stream #0:0(und): Video: h264 (Main) (avc1 / 0x31637661), yuv420p(tv, bt709, progressive), 256x144, q=2-31, 2000 kb/s, 30 fps, 15360 tbn (default)\n",
      "    Metadata:\n",
      "      handler_name    : VideoHandler\n",
      "      vendor_id       : [0][0][0][0]\n",
      "      encoder         : Lavc58.134.100 h264_nvenc\n",
      "    Side data:\n",
      "      cpb: bitrate max/min/avg: 0/0/2000000 buffer size: 4000000 vbv_delay: N/A\n",
      "  Stream #0:1(und): Audio: aac (LC) (mp4a / 0x6134706D), 44100 Hz, stereo, fltp, 128 kb/s (default)\n",
      "    Metadata:\n",
      "      handler_name    : SoundHandler\n",
      "      vendor_id       : [0][0][0][0]\n",
      "      encoder         : Lavc58.134.100 aac\n",
      "frame=  225 fps=188 q=7.0 Lsize=    1146kB time=00:00:07.47 bitrate=1256.1kbits/s dup=1 drop=0 speed=6.26x    \n",
      "video:1019kB audio:118kB subtitle:0kB other streams:0kB global headers:0kB muxing overhead: 0.783999%\n",
      "[aac @ 0x557e09db9f40] Qavg: 2593.899\n",
      "ffmpeg version 4.4.2-0ubuntu0.22.04.1 Copyright (c) 2000-2021 the FFmpeg developers\n",
      "  built with gcc 11 (Ubuntu 11.2.0-19ubuntu1)\n",
      "  configuration: --prefix=/usr --extra-version=0ubuntu0.22.04.1 --toolchain=hardened --libdir=/usr/lib/x86_64-linux-gnu --incdir=/usr/include/x86_64-linux-gnu --arch=amd64 --enable-gpl --disable-stripping --enable-gnutls --enable-ladspa --enable-libaom --enable-libass --enable-libbluray --enable-libbs2b --enable-libcaca --enable-libcdio --enable-libcodec2 --enable-libdav1d --enable-libflite --enable-libfontconfig --enable-libfreetype --enable-libfribidi --enable-libgme --enable-libgsm --enable-libjack --enable-libmp3lame --enable-libmysofa --enable-libopenjpeg --enable-libopenmpt --enable-libopus --enable-libpulse --enable-librabbitmq --enable-librubberband --enable-libshine --enable-libsnappy --enable-libsoxr --enable-libspeex --enable-libsrt --enable-libssh --enable-libtheora --enable-libtwolame --enable-libvidstab --enable-libvorbis --enable-libvpx --enable-libwebp --enable-libx265 --enable-libxml2 --enable-libxvid --enable-libzimg --enable-libzmq --enable-libzvbi --enable-lv2 --enable-omx --enable-openal --enable-opencl --enable-opengl --enable-sdl2 --enable-pocketsphinx --enable-librsvg --enable-libmfx --enable-libdc1394 --enable-libdrm --enable-libiec61883 --enable-chromaprint --enable-frei0r --enable-libx264 --enable-shared\n",
      "  libavutil      56. 70.100 / 56. 70.100\n",
      "  libavcodec     58.134.100 / 58.134.100\n",
      "  libavformat    58. 76.100 / 58. 76.100\n",
      "  libavdevice    58. 13.100 / 58. 13.100\n",
      "  libavfilter     7.110.100 /  7.110.100\n",
      "  libswscale      5.  9.100 /  5.  9.100\n",
      "  libswresample   3.  9.100 /  3.  9.100\n",
      "  libpostproc    55.  9.100 / 55.  9.100\n",
      "Input #0, mov,mp4,m4a,3gp,3g2,mj2, from 'test.mp4':\n",
      "  Metadata:\n",
      "    major_brand     : isom\n",
      "    minor_version   : 512\n",
      "    compatible_brands: isomiso2avc1mp41\n",
      "    encoder         : Lavf61.1.100\n",
      "  Duration: 00:03:01.84, start: 0.000000, bitrate: 239 kb/s\n",
      "  Stream #0:0(und): Video: h264 (Main) (avc1 / 0x31637661), yuv420p(tv, bt709), 256x144, 200 kb/s, 30.01 fps, 30 tbr, 90k tbn, 2000k tbc (default)\n",
      "    Metadata:\n",
      "      handler_name    : VideoHandler\n",
      "      vendor_id       : [0][0][0][0]\n",
      "  Stream #0:1(und): Audio: aac (LC) (mp4a / 0x6134706D), 44100 Hz, stereo, fltp, 32 kb/s (default)\n",
      "    Metadata:\n",
      "      handler_name    : SoundHandler\n",
      "      vendor_id       : [0][0][0][0]\n",
      "Stream mapping:\n",
      "  Stream #0:0 -> #0:0 (h264 (native) -> h264 (h264_nvenc))\n",
      "  Stream #0:1 -> #0:1 (aac (native) -> aac (native))\n",
      "Press [q] to stop, [?] for help\n",
      "Output #0, mp4, to 'output_scenes/scene_9.mp4':\n",
      "  Metadata:\n",
      "    major_brand     : isom\n",
      "    minor_version   : 512\n",
      "    compatible_brands: isomiso2avc1mp41\n",
      "    encoder         : Lavf58.76.100\n",
      "  Stream #0:0(und): Video: h264 (Main) (avc1 / 0x31637661), yuv420p(tv, bt709, progressive), 256x144, q=2-31, 2000 kb/s, 30 fps, 15360 tbn (default)\n",
      "    Metadata:\n",
      "      handler_name    : VideoHandler\n",
      "      vendor_id       : [0][0][0][0]\n",
      "      encoder         : Lavc58.134.100 h264_nvenc\n",
      "    Side data:\n",
      "      cpb: bitrate max/min/avg: 0/0/2000000 buffer size: 4000000 vbv_delay: N/A\n",
      "  Stream #0:1(und): Audio: aac (LC) (mp4a / 0x6134706D), 44100 Hz, stereo, fltp, 128 kb/s (default)\n",
      "    Metadata:\n",
      "      handler_name    : SoundHandler\n",
      "      vendor_id       : [0][0][0][0]\n",
      "      encoder         : Lavc58.134.100 aac\n",
      "frame=  495 fps=422 q=10.0 Lsize=    3575kB time=00:00:16.48 bitrate=1776.3kbits/s dup=1 drop=0 speed=14.1x    \n",
      "video:3291kB audio:266kB subtitle:0kB other streams:0kB global headers:0kB muxing overhead: 0.504866%\n",
      "[aac @ 0x55b9465b1f40] Qavg: 5710.673\n"
     ]
    }
   ],
   "execution_count": 10
  },
  {
   "metadata": {},
   "cell_type": "code",
   "outputs": [],
   "execution_count": null,
   "source": "",
   "id": "4212770ba38a316c"
  }
 ],
 "metadata": {
  "kernelspec": {
   "display_name": "Python 3",
   "language": "python",
   "name": "python3"
  },
  "language_info": {
   "codemirror_mode": {
    "name": "ipython",
    "version": 2
   },
   "file_extension": ".py",
   "mimetype": "text/x-python",
   "name": "python",
   "nbconvert_exporter": "python",
   "pygments_lexer": "ipython2",
   "version": "2.7.6"
  }
 },
 "nbformat": 4,
 "nbformat_minor": 5
}
